# xmcd CD database file
#
# Track frame offsets:
#	182
#	23322
#	43530
#	57325
#	74357
#	88782
#	106100
#	123415
#	140270
#	155942
#	172507
#	191815
#	214152
#	237867
#
# Disc length: 3285 seconds
#
# Revision: 1
# Processed by: cddbd v1.5PL3 Copyright (c) Steve Scherf et al.
# Submitted via: CDex 1.51
#
DISCID=b80cd30e
DTITLE=Al'+ Harry's Jazz Band - On Basin Street
DYEAR=1989
DGENRE=Jazz
TTITLE0=Basin Street Blues
TTITLE1=Blueberry Hill
TTITLE2=Texas Moaner
TTITLE3=Bourbon Street Parade
TTITLE4=Sweethearts on Parade
TTITLE5=Wabash Blues
TTITLE6=St.Louis Blues
TTITLE7=Savoy Blues
TTITLE8=Someday you'll be sorry
TTITLE9=Royal Garden Blues
TTITLE10=I'm crazy 'bout my Baby
TTITLE11=Struttin with some barbecue
TTITLE12=Cabaret
TTITLE13=My Bucket's got a hole in it
EXTD=YEAR: 1989
EXTT0=
EXTT1=
EXTT2=
EXTT3=
EXTT4=
EXTT5=
EXTT6=
EXTT7=
EXTT8=
EXTT9=
EXTT10=
EXTT11=
EXTT12=
EXTT13=
PLAYORDER=
